# xmcd
#
# Track frame offsets:
#	150
#	29247
#	40348
#	60172
#	74781
#	102447
#	118063
#	138882
#	167264
#	195291
#	227323
#	246517
#
# Disc length: 3541 seconds
#
# Revision: 0
# Processed by: cddbd v1.5.1PL0 Copyright (c) Steve Scherf et al.
# Submitted via: audiograbber 1.83.01
#
DISCID=a20dd30c
DTITLE=Humble Pie - As Safe As Yesterday Is
DYEAR=1969
DGENRE=Blues
TTITLE0=Desperation
TTITLE1=Stick Shift
TTITLE2=Butter Milk Boy
TTITLE3=Growing Colser
TTITLE4=As Safe As Yesterday
TTITLE5=Bang
TTITLE6=Alabama '69
TTITLE7=I'll Go Alone
TTITLE8=A Nifty Little Number Like You
TTITLE9=What You Will
TTITLE10=Natural Born Boogie
TTITLE11=Wrist Job
EXTD=Iv@n! 
EXTT0=
EXTT1=
EXTT2=
EXTT3=
EXTT4=
EXTT5=
EXTT6=
EXTT7=
EXTT8=
EXTT9=
EXTT10=
EXTT11=
PLAYORDER=
